<svg xmlns="http://www.w3.org/2000/svg" width="849.086" height="283.016" viewBox="0 0 849.086 283.016"><path fill="#111516" d="M614.555 80.826l4.38 10.38c-2.552-3.923-5.593-7.423-9.167-10.426-4.212-3.547-9.107-6.297-14.696-8.26-5.556-1.954-11.812-2.93-18.737-2.93-16.276 0-28.516 4.07-36.74 12.202-8.194 8.148-12.31 19.284-12.31 33.46 0 7.67 1.724 14.153 5.194 19.42 3.468 5.27 7.762 9.908 12.895 13.89 5.11 4.012 10.69 7.538 16.72 10.63 6.018 3.085 11.586 6.22 16.715 9.383 5.12 3.15 9.425 6.6 12.882 10.276 3.473 3.698 5.194 8.104 5.194 13.237 0 6.156-1.846 10.95-5.53 14.344-3.698 3.38-8.25 5.07-13.683 5.07-2.253 0-4.618-.446-7.115-1.337-2.477-.916-4.862-2.416-7.116-4.537-2.26-2.096-4.257-4.852-5.97-8.242-1.5-2.906-2.657-6.422-3.54-10.484l2.23-4.41-19.382-8.672-14.006 17.347.142.207-.142.028c4.215 16.12 10.947 27.802 20.218 35.023 9.263 7.232 20.306 10.842 33.097 10.842 8.146 0 15.454-1.09 21.92-3.266 6.485-2.187 11.95-5.312 16.412-9.394 4.43-4.066 7.822-8.96 10.166-14.683 2.328-5.715 3.494-12.13 3.494-19.215 0-8.43-1.737-15.662-5.21-21.668-3.463-6.04-7.753-11.25-12.874-15.61-5.13-4.365-10.698-8.173-16.723-11.414-6.025-3.25-11.6-6.296-16.72-9.15-5.126-2.868-9.435-5.838-12.883-8.922-3.477-3.097-5.19-6.67-5.19-10.734 0-5.572 1.45-9.954 4.398-13.118 2.938-3.157 7.195-4.74 12.766-4.74 5.43 0 9.95 1.734 13.557 5.182 3.62 3.478 6.716 9.052 9.278 16.74l28.024-8.147-.008-.022L640.5 91.733l-25.945-10.907zM230.133 162.24c8.74-3.305 15.027-8.515 18.87-15.598 3.836-7.08 5.762-15.732 5.762-25.973 0-15.515-4.515-27.52-13.556-36.05-9.052-8.49-22.982-12.748-41.816-12.748h-16.187l4.396-8.696-19.115-8.688-13.746 17.36v163.025h30.647l14.68-17.3-13.33-7.462v-41.237h13.56l27.126 66h33.443l14.007-17.3-25.95-10.87-18.794-44.462zm-12.428-24.705c-3.924 3.533-9.35 5.337-16.268 5.337H186.74v-45h14.697c6.918 0 12.344 1.65 16.268 5.186 3.916 3.538 5.875 9.26 5.875 17.243 0 7.972-1.96 13.695-5.875 17.235zM365.966 81.916c-4.515-4.3-9.94-7.433-16.27-9.395-6.327-1.954-13.257-2.93-20.8-2.93-7.535 0-14.46.976-20.78 2.93-6.337 1.963-11.747 5.096-16.272 9.396-4.52 4.28-7.385 9.896-9.942 16.826-2.568 6.937-3.158 15.442-3.158 25.533v58.314c0 10.087.59 18.605 3.158 25.532 2.558 6.926 5.762 12.537 10.285 16.832 4.524 4.29 9.764 7.422 16.1 9.39 6.32 1.938 13.16 2.924 20.696 2.924 7.543 0 14.43-.984 20.756-2.925 6.33-1.967 11.736-5.1 16.25-9.39 4.522-4.294 8.204-9.905 10.757-16.83 2.567-6.927 3.997-15.446 3.997-25.534v-58.315c0-10.09-1.44-18.597-4.007-25.533-2.558-6.93-6.25-12.547-10.77-16.826zm-16.225 104.73c0 9.047-2.064 15.154-5.666 18.312-3.627 3.164-8.72 4.74-15.054 4.74-6.324 0-10.756-1.576-14.385-4.74-3.615-3.156-4.894-9.265-4.894-18.312V120.22c0-9.05 1.216-15.142 4.832-18.312 3.63-3.166 8.294-4.737 14.62-4.737 6.332 0 11.404 1.572 15.03 4.738 3.602 3.17 5.52 9.262 5.52 18.312v66.427zM489.525 81.916c-4.504-4.3-9.938-7.433-16.264-9.395-6.328-1.954-13.267-2.93-20.79-2.93-7.533 0-14.458.976-20.79 2.93-6.33 1.963-11.76 5.096-16.277 9.396-4.52 4.28-7.656 9.896-10.23 16.826-2.557 6.937-3.432 15.442-3.432 25.533v58.314c0 10.087.876 18.605 3.434 25.532 2.573 6.926 5.908 12.537 10.43 16.832 4.518 4.29 9.85 7.422 16.177 9.39 6.333 1.938 13.208 2.924 20.742 2.924 7.523 0 14.438-.984 20.767-2.925 6.325-1.967 11.746-5.1 16.25-9.39 4.53-4.294 8.438-9.905 10.994-16.83 2.57-6.927 4.21-15.446 4.21-25.534v-58.315c0-10.09-1.644-18.597-4.218-25.533-2.557-6.93-6.468-12.547-11-16.826zm-15.784 104.73c0 9.047-2.273 15.154-5.886 18.312-3.62 3.164-8.828 4.74-15.148 4.74-6.317 0-11.623-1.576-15.227-4.74-3.622-3.156-5.74-9.265-5.74-18.312V120.22c0-9.05 2.003-15.142 5.622-18.312 3.605-3.166 8.692-4.737 15.012-4.737s11.812 1.572 15.435 4.738c3.61 3.17 5.933 9.262 5.933 18.312l-.002 66.426zM756.74 98.856l12.99-16.102-12.99-5.456v-5.426h-76.35l4.393-8.696L665.39 54.5 651.39 71.872h.353v27h37v136h31v.144l14.006-17.37-14.005-5.887V98.87h34.273l.294.694.56-.694h1.874"/><path fill="#E3202D" d="M241.44 217.646L214.312 151.2h-14.92v66.446h-31.18V54.48h45.2c18.83 0 32.763 4.25 41.798 12.76 9.044 8.523 13.563 20.53 13.563 36.053 0 10.25-1.92 18.914-5.757 25.993-3.845 7.09-10.15 12.283-18.87 15.59l30.73 72.77h-33.437zm-42.047-92.2h16.043c6.93 0 12.353-1.776 16.283-5.322 3.916-3.533 5.868-9.293 5.868-17.293 0-7.98-1.952-13.74-5.87-17.275-3.93-3.544-9.353-5.316-16.282-5.316h-16.043v45.205zM414.95 106.903c0-10.086 1.285-18.605 3.84-25.543 2.573-6.915 6.12-12.53 10.628-16.83 4.52-4.288 9.943-7.403 16.276-9.37 6.313-1.96 13.26-2.938 20.794-2.938 7.52 0 14.444.978 20.786 2.937 6.312 1.967 11.754 5.082 16.26 9.37 4.53 4.3 8.062 9.915 10.63 16.83 2.553 6.938 3.843 15.457 3.843 25.543v58.32c0 10.077-1.29 18.604-3.842 25.522-2.567 6.926-6.102 12.56-10.632 16.84-4.505 4.29-9.946 7.426-16.26 9.383-6.34 1.947-13.268 2.933-20.785 2.933-7.535 0-14.48-.983-20.794-2.932-6.333-1.957-11.76-5.092-16.276-9.383-4.51-4.28-8.055-9.914-10.628-16.84-2.555-6.92-3.84-15.445-3.84-25.522v-58.32zm31.202 62.38c0 9.03 1.79 15.138 5.417 18.302 3.613 3.16 8.576 4.746 14.918 4.746 6.316 0 11.288-1.585 14.913-4.745 3.62-3.164 5.418-9.27 5.418-18.303V102.83c0-9.023-1.797-15.122-5.417-18.28-3.624-3.19-8.596-4.76-14.912-4.76-6.342 0-11.305 1.57-14.92 4.76-3.625 3.158-5.416 9.257-5.416 18.28v66.452zM612.49 99.903c-2.58-7.676-5.646-13.254-9.276-16.728-3.61-3.468-8.143-5.186-13.555-5.186-5.573 0-9.84 1.565-12.772 4.748-2.936 3.15-4.41 7.518-4.41 13.094 0 4.07 1.725 7.642 5.19 10.746 3.48 3.068 7.767 6.058 12.897 8.908 5.12 2.87 10.694 5.914 16.718 9.162 6.02 3.24 11.596 7.053 16.727 11.41 5.114 4.374 9.41 9.564 12.867 15.6 3.473 6.035 5.206 13.258 5.206 21.695 0 7.066-1.166 13.49-3.49 19.2-2.347 5.728-5.73 10.628-10.18 14.692-4.446 4.074-9.904 7.21-16.378 9.373-6.48 2.19-13.782 3.28-21.924 3.28-12.81 0-23.842-3.602-33.11-10.85-9.267-7.225-15.993-18.9-20.223-35.026l30.73-6.553c.9 4.972 2.23 9.148 3.963 12.546 1.72 3.38 3.728 6.133 5.98 8.252 2.27 2.108 4.638 3.612 7.116 4.52 2.48.897 4.86 1.347 7.12 1.347 5.42 0 9.98-1.688 13.666-5.07 3.706-3.4 5.56-8.188 5.56-14.37 0-5.11-1.76-9.527-5.22-13.207-3.454-3.695-7.75-7.113-12.872-10.29-5.12-3.154-10.707-6.285-16.736-9.382-6.01-3.086-11.588-6.62-16.712-10.62-5.115-3.98-9.416-8.616-12.872-13.892-3.485-5.272-5.196-11.763-5.196-19.447 0-14.146 4.098-25.3 12.302-33.436 8.218-8.135 20.458-12.2 36.736-12.2 6.93 0 13.188.98 18.74 2.938 5.574 1.968 10.476 4.71 14.695 8.252 4.202 3.535 7.72 7.72 10.51 12.535 2.784 4.828 4.857 10.096 6.228 15.827l-28.025 8.13zM769.34 54.48v27.567h-36.384v135.598h-31.19V82.047H665.39V54.48h103.95zM291.383 106.903c0-10.086 1.29-18.605 3.853-25.543 2.56-6.915 6.088-12.53 10.61-16.83 4.52-4.288 9.956-7.403 16.27-9.37 6.344-1.96 13.264-2.938 20.796-2.938 7.535 0 14.474.978 20.794 2.937 6.316 1.967 11.747 5.082 16.274 9.37 4.52 4.3 8.053 9.915 10.62 16.83 2.565 6.938 3.837 15.457 3.837 25.543v58.32c0 10.077-1.27 18.604-3.836 25.522-2.567 6.926-6.102 12.56-10.62 16.84-4.527 4.29-9.958 7.426-16.274 9.383-6.32 1.947-13.26 2.933-20.794 2.933-7.532 0-14.45-.983-20.795-2.932-6.313-1.957-11.75-5.092-16.27-9.383-4.523-4.28-8.054-9.914-10.61-16.84-2.563-6.92-3.854-15.445-3.854-25.522v-58.32zm31.187 62.38c0 9.03 1.81 15.138 5.43 18.302 3.618 3.16 8.587 4.746 14.91 4.746 6.337 0 11.302-1.585 14.933-4.745 3.608-3.164 5.41-9.27 5.41-18.303V102.83c0-9.023-1.802-15.122-5.41-18.28-3.63-3.19-8.596-4.76-14.933-4.76-6.323 0-11.292 1.57-14.91 4.76-3.62 3.158-5.43 9.257-5.43 18.28v66.452z"/><path fill="#111516" d="M131.896 61.456c10.507 33.444-8.09 69.063-41.56 79.554-33.446 10.497-69.062-8.106-79.562-41.563C.277 66.003 18.887 30.4 52.348 19.894c33.43-10.505 69.058 8.104 79.548 41.562z"/><path fill="#FFF" d="M34.918 74.533c-2.874.908-4.67.384-5.173-1.2-.59-1.884 3.95-3.75 13.36-7.464-.023-5.99.12-8.655 2.608-9.43 1.775-.568 3.246-.05 3.567.948.114.394-.54 2.453-.31 6.304 3.676-1.48 6.627-2.504 8.704-3.168 5.66-1.77 8.45-1.88 9.177.397.312 1-.65 1.406-2.83 2.087-3.88 1.214-8.823 3.535-15.248 5.985-1.093 19.09.378 31.064 1.593 34.938.592 1.895 1.592 2.655 2.597 2.354 1.577-.504 3.104-3.276 4.212-8.092 1.253-5.404.718-8.84 1.604-9.116 1.2-.372 2.667.148 2.976 1.137.217.692.062 6.09-2.583 13.675-1.174 3.53-3.39 5.86-6.17 6.732-2.966.937-6.194-.996-7.81-6.155-1.657-5.263-2.68-16.177-2.454-32.817-4.177 1.638-6.823 2.58-7.818 2.885z"/><path fill="#FFF" d="M62.84 109.284c-2.08.656-3.227.144-3.854-1.843-.998-3.18-1.396-17.66.898-43.348 1.056-11.567 1.14-16.496 4.818-17.66.897-.273 1.94.273 2.15.966.41 1.296-3.47 19.514-3.89 54.98 5.555-18.426 6.28-27.92 11.14-29.45 1.288-.41 2.593.277 3.064 1.763.406 1.294.29 2.315.102 3.454-1.36 10.24-1.878 16.62-1.038 19.296.287.898.746 1.3 1.243 1.146 1.58-.5 2.96-4.098 4.72-10.65.463-1.662.64-2.81 1.34-3.028.293-.09 2.193.727 2.46 1.625.202.593-.224 5.525-2.845 11.037-1.4 2.837-3.043 4.55-5.33 5.263-2.882.902-5.022-.376-6.048-3.654-.878-2.78-1.11-6.636-1.186-11.738-3.396 13.82-3.68 20.56-7.744 21.842z"/><path fill="#FFF" d="M88.178 90.642c1.15 3.673 2.756 5.354 4.747 4.735 3.183-1.003 7.473-7.146 9.14-16.068.434-2.428.457-3.746 1.156-3.96.49-.16 1.7.226 2.08 1.42.31.987.056 4.345-1.785 9.273-2.655 7.166-5.62 11.258-10.688 12.85-4.957 1.555-8.35-.547-10.15-6.307-1.752-5.553-1.856-15.99.698-24.53.77-2.416 2.083-4.14 3.77-4.67.982-.312 1.91-.164 2.99.15 4.252-.026 4.88-.77 5.9 2.504 2.754 8.73-.937 18.18-5.405 19.583-.998.315-2.104.23-3.4-.457.05 1.953.38 3.695.948 5.476zm3.435-20.273c-.24-.786-1.05-1.295-1.653-1.11-1.88.594-3.456 8.063-2.615 10.747.596 1.882 1.72 2.723 2.815 2.38 2.18-.68 2.866-7.55 1.453-12.018z"/></svg>