<?xml version="1.0" encoding="utf-8"?>
<!-- Generator: Adobe Illustrator 15.0.0, SVG Export Plug-In . SVG Version: 6.00 Build 0)  -->
<!DOCTYPE svg PUBLIC "-//W3C//DTD SVG 1.1//EN" "http://www.w3.org/Graphics/SVG/1.1/DTD/svg11.dtd">
<svg version="1.1" id="Layer_1" xmlns="http://www.w3.org/2000/svg" xmlns:xlink="http://www.w3.org/1999/xlink" x="0px" y="0px"
	 width="849.086px" height="283.016px" viewBox="0 0 849.086 283.016" enable-background="new 0 0 849.086 283.016"
	 xml:space="preserve">
<g id="Guides_For_Artboard">
</g>
<path fill="#111516" d="M614.555,80.826l4.381,10.381c-2.553-3.924-5.594-7.424-9.168-10.427c-4.212-3.547-9.107-6.297-14.696-8.259
	c-5.556-1.955-11.812-2.93-18.737-2.93c-16.276,0-28.516,4.07-36.739,12.201c-8.195,8.148-12.312,19.284-12.312,33.461
	c0,7.669,1.725,14.152,5.195,19.419c3.469,5.27,7.763,9.908,12.896,13.891c5.111,4.011,10.691,7.537,16.719,10.628
	c6.019,3.086,11.587,6.222,16.716,9.384c5.12,3.151,9.425,6.6,12.882,10.276c3.473,3.697,5.194,8.103,5.194,13.236
	c0,6.156-1.846,10.949-5.531,14.344c-3.697,3.379-8.25,5.068-13.682,5.068c-2.253,0-4.618-0.445-7.115-1.336
	c-2.477-0.916-4.862-2.416-7.116-4.537c-2.259-2.096-4.257-4.852-5.971-8.242c-1.498-2.906-2.656-6.422-3.54-10.484l2.23-4.409
	l-19.381-8.673l-14.006,17.347l0.142,0.207l-0.142,0.028c4.215,16.119,10.947,27.802,20.218,35.023
	c9.263,7.232,20.306,10.842,33.097,10.842c8.147,0,15.455-1.09,21.922-3.266c6.484-2.186,11.95-5.311,16.411-9.393
	c4.429-4.066,7.822-8.959,10.166-14.683c2.328-5.715,3.494-12.129,3.494-19.215c0-8.431-1.737-15.662-5.209-21.668
	c-3.464-6.039-7.754-11.25-12.875-15.609c-5.129-4.366-10.698-8.174-16.723-11.415c-6.025-3.25-11.6-6.296-16.721-9.151
	c-5.125-2.867-9.434-5.837-12.882-8.921c-3.477-3.097-5.19-6.67-5.19-10.734c0-5.572,1.45-9.954,4.398-13.118
	c2.938-3.157,7.195-4.74,12.766-4.74c5.429,0,9.95,1.734,13.557,5.182c3.621,3.478,6.716,9.052,9.278,16.741l28.023-8.148
	c-0.002-0.007-0.005-0.015-0.008-0.022l14.003-17.372L614.555,80.826z"/>
<path fill="#111516" d="M230.133,162.241c8.741-3.306,15.027-8.516,18.871-15.599c3.835-7.079,5.761-15.732,5.761-25.973
	c0-15.514-4.515-27.519-13.556-36.048c-9.051-8.492-22.981-12.749-41.815-12.749h-16.187l4.396-8.696l-19.115-8.688l-13.746,17.359
	v163.026h30.647l14.68-17.299l-13.328-7.463v-41.238h13.56l27.125,66h33.443l14.008-17.299l-25.951-10.871L230.133,162.241z
	 M217.705,137.535c-3.924,3.533-9.35,5.337-16.268,5.337h-14.696v-45h14.696c6.918,0,12.344,1.65,16.268,5.186
	c3.916,3.538,5.875,9.259,5.875,17.243C223.58,128.272,221.621,133.995,217.705,137.535z"/>
<path fill="#111516" d="M365.966,81.916c-4.515-4.3-9.939-7.433-16.271-9.395c-6.326-1.955-13.256-2.93-20.799-2.93
	c-7.535,0-14.461,0.975-20.781,2.93c-6.336,1.962-11.746,5.095-16.271,9.395c-4.521,4.279-7.385,9.896-9.942,16.826
	c-2.568,6.937-3.158,15.442-3.158,25.533v58.314c0,10.088,0.589,18.606,3.158,25.533c2.558,6.926,5.762,12.537,10.285,16.832
	c4.524,4.289,9.764,7.422,16.101,9.389c6.319,1.939,13.16,2.925,20.695,2.925c7.543,0,14.431-0.984,20.756-2.925
	c6.332-1.967,11.737-5.1,16.25-9.389c4.523-4.295,8.205-9.906,10.758-16.832c2.567-6.926,3.997-15.445,3.997-25.533v-58.314
	c0-10.091-1.44-18.597-4.007-25.533C374.179,91.811,370.487,86.195,365.966,81.916z M349.741,186.646
	c0,9.047-2.065,15.154-5.667,18.312c-3.627,3.164-8.721,4.74-15.054,4.74c-6.324,0-10.756-1.576-14.385-4.74
	c-3.615-3.156-4.894-9.265-4.894-18.312V120.22c0-9.051,1.215-15.142,4.831-18.312c3.63-3.166,8.294-4.737,14.619-4.737
	c6.333,0,11.405,1.571,15.031,4.737c3.602,3.171,5.52,9.262,5.52,18.312v66.427H349.741z"/>
<path fill="#111516" d="M489.525,81.916c-4.504-4.3-9.938-7.433-16.264-9.395c-6.329-1.955-13.268-2.93-20.79-2.93
	c-7.534,0-14.459,0.975-20.791,2.93c-6.329,1.962-11.759,5.095-16.277,9.395c-4.52,4.279-7.656,9.896-10.229,16.826
	c-2.558,6.937-3.433,15.442-3.433,25.533v58.314c0,10.088,0.875,18.606,3.433,25.533c2.573,6.926,5.908,12.537,10.429,16.832
	c4.519,4.289,9.85,7.422,16.178,9.389c6.332,1.939,13.207,2.925,20.741,2.925c7.523,0,14.438-0.984,20.767-2.925
	c6.326-1.967,11.747-5.1,16.251-9.389c4.531-4.295,8.438-9.906,10.994-16.832c2.571-6.926,4.209-15.445,4.209-25.533v-58.314
	c0-10.091-1.643-18.597-4.217-25.533C497.969,91.811,494.058,86.195,489.525,81.916z M473.741,186.646
	c0,9.047-2.274,15.154-5.887,18.312c-3.619,3.164-8.828,4.74-15.148,4.74c-6.317,0-11.623-1.576-15.227-4.74
	c-3.621-3.156-5.738-9.265-5.738-18.312V120.22c0-9.051,2.002-15.142,5.621-18.312c3.605-3.166,8.692-4.737,15.012-4.737
	c6.32,0,11.812,1.571,15.435,4.737c3.611,3.171,5.934,9.262,5.934,18.312L473.741,186.646L473.741,186.646z"/>
<polygon fill="#111516" points="756.741,98.856 769.729,82.754 756.741,77.298 756.741,71.872 680.389,71.872 684.783,63.176 
	665.391,54.5 651.388,71.872 651.741,71.872 651.741,98.872 688.741,98.872 688.741,234.872 719.741,234.872 719.741,235.016 
	733.746,217.646 719.741,211.759 719.741,98.872 754.013,98.872 754.307,99.566 754.866,98.872 756.741,98.872 "/>
<g>
	<path fill="#E3202D" d="M241.439,217.646l-27.126-66.447h-14.921v66.447h-31.18V54.481h45.202c18.828,0,32.762,4.25,41.797,12.758
		c9.043,8.524,13.562,20.532,13.562,36.054c0,10.25-1.92,18.914-5.757,25.993c-3.845,7.089-10.149,12.283-18.87,15.591l30.729,72.77
		H241.439z M199.393,125.445h16.043c6.93,0,12.353-1.775,16.283-5.321c3.917-3.533,5.869-9.293,5.869-17.293
		c0-7.981-1.952-13.741-5.869-17.276c-3.932-3.544-9.354-5.316-16.283-5.316h-16.043V125.445z"/>
</g>
<g>
	<path fill="#E3202D" d="M414.949,106.903c0-10.086,1.286-18.605,3.841-25.543c2.573-6.915,6.119-12.531,10.628-16.831
		c4.519-4.287,9.943-7.402,16.276-9.37c6.313-1.959,13.259-2.937,20.794-2.937c7.519,0,14.444,0.978,20.786,2.937
		c6.312,1.968,11.754,5.083,16.259,9.37c4.53,4.3,8.063,9.916,10.632,16.831c2.552,6.938,3.842,15.457,3.842,25.543v58.32
		c0,10.077-1.29,18.604-3.842,25.522c-2.567,6.926-6.102,12.56-10.632,16.84c-4.505,4.291-9.946,7.426-16.259,9.383
		c-6.342,1.947-13.269,2.933-20.786,2.933c-7.535,0-14.479-0.984-20.794-2.933c-6.333-1.957-11.759-5.092-16.276-9.383
		c-4.509-4.281-8.055-9.914-10.628-16.84c-2.555-6.92-3.841-15.445-3.841-25.522V106.903z M446.152,169.282
		c0,9.032,1.791,15.139,5.417,18.303c3.614,3.16,8.577,4.746,14.919,4.746c6.316,0,11.288-1.586,14.913-4.746
		c3.62-3.164,5.417-9.271,5.417-18.303V102.83c0-9.023-1.797-15.122-5.417-18.279c-3.625-3.191-8.597-4.762-14.913-4.762
		c-6.342,0-11.305,1.57-14.919,4.762c-3.626,3.157-5.417,9.256-5.417,18.279V169.282z"/>
</g>
<g>
	<path fill="#E3202D" d="M612.49,99.903c-2.579-7.676-5.646-13.254-9.276-16.728c-3.61-3.468-8.143-5.186-13.555-5.186
		c-5.572,0-9.838,1.566-12.771,4.749c-2.936,3.149-4.409,7.518-4.409,13.094c0,4.07,1.724,7.642,5.19,10.746
		c3.479,3.068,7.766,6.058,12.896,8.908c5.121,2.871,10.694,5.914,16.718,9.162c6.02,3.24,11.596,7.053,16.727,11.411
		c5.114,4.373,9.41,9.563,12.867,15.598c3.473,6.036,5.206,13.259,5.206,21.696c0,7.066-1.166,13.49-3.49,19.199
		c-2.347,5.729-5.729,10.629-10.18,14.693c-4.446,4.074-9.904,7.209-16.378,9.373c-6.479,2.191-13.782,3.279-21.924,3.279
		c-12.812,0-23.843-3.601-33.111-10.849c-9.267-7.225-15.993-18.901-20.223-35.026l30.729-6.553
		c0.902,4.973,2.23,9.149,3.964,12.547c1.72,3.381,3.728,6.133,5.979,8.252c2.27,2.108,4.639,3.612,7.117,4.521
		c2.481,0.896,4.861,1.346,7.12,1.346c5.421,0,9.981-1.688,13.666-5.071c3.706-3.4,5.56-8.187,5.56-14.369
		c0-5.109-1.759-9.527-5.22-13.207c-3.454-3.695-7.749-7.113-12.872-10.291c-5.121-3.153-10.707-6.284-16.736-9.381
		c-6.011-3.086-11.588-6.619-16.712-10.621c-5.115-3.979-9.416-8.615-12.872-13.891c-3.485-5.272-5.196-11.763-5.196-19.447
		c0-14.146,4.098-25.3,12.302-33.436c8.218-8.136,20.458-12.201,36.736-12.201c6.931,0,13.188,0.979,18.739,2.938
		c5.575,1.968,10.477,4.709,14.696,8.252c4.202,3.535,7.72,7.72,10.509,12.535c2.785,4.828,4.858,10.096,6.229,15.827L612.49,99.903
		z"/>
</g>
<g>
	<path fill="#E3202D" d="M769.341,54.481v27.566h-36.385v135.598h-31.191V82.047h-36.373V54.481H769.341z"/>
</g>
<g>
	<path fill="#E3202D" d="M291.383,106.903c0-10.086,1.29-18.605,3.853-25.543c2.559-6.915,6.088-12.531,10.61-16.831
		c4.521-4.287,9.956-7.402,16.271-9.37c6.343-1.959,13.263-2.937,20.795-2.937c7.535,0,14.474,0.978,20.794,2.937
		c6.316,1.968,11.747,5.083,16.274,9.37c4.52,4.3,8.053,9.916,10.621,16.831c2.564,6.938,3.836,15.457,3.836,25.543v58.32
		c0,10.077-1.271,18.604-3.836,25.522c-2.568,6.926-6.103,12.56-10.621,16.84c-4.527,4.291-9.958,7.426-16.274,9.383
		c-6.32,1.947-13.259,2.933-20.794,2.933c-7.532,0-14.451-0.984-20.795-2.933c-6.313-1.957-11.75-5.092-16.271-9.383
		c-4.522-4.281-8.053-9.914-10.61-16.84c-2.562-6.92-3.853-15.445-3.853-25.522V106.903z M322.57,169.282
		c0,9.032,1.809,15.139,5.431,18.303c3.617,3.16,8.586,4.746,14.909,4.746c6.337,0,11.302-1.586,14.933-4.746
		c3.608-3.164,5.41-9.271,5.41-18.303V102.83c0-9.023-1.802-15.122-5.41-18.279c-3.631-3.191-8.596-4.762-14.933-4.762
		c-6.323,0-11.292,1.57-14.909,4.762c-3.622,3.157-5.431,9.256-5.431,18.279V169.282z"/>
</g>
<path fill="#111516" d="M131.896,61.456c10.507,33.444-8.09,69.063-41.56,79.554c-33.446,10.497-69.062-8.106-79.562-41.563
	C0.277,66.003,18.887,30.401,52.348,19.894C85.777,9.389,121.406,27.998,131.896,61.456z"/>
<path fill="#FFFFFF" d="M34.918,74.533c-2.874,0.908-4.67,0.384-5.173-1.199c-0.591-1.885,3.951-3.75,13.359-7.465
	c-0.022-5.989,0.12-8.654,2.609-9.43c1.775-0.567,3.246-0.048,3.567,0.949c0.114,0.394-0.541,2.453-0.311,6.304
	c3.677-1.48,6.628-2.504,8.705-3.168c5.659-1.771,8.449-1.881,9.177,0.397c0.311,0.998-0.65,1.405-2.832,2.086
	c-3.879,1.214-8.822,3.535-15.247,5.985c-1.093,19.091,0.378,31.064,1.593,34.938c0.592,1.895,1.592,2.655,2.597,2.354
	c1.577-0.504,3.104-3.276,4.212-8.092c1.253-5.404,0.718-8.84,1.604-9.116c1.2-0.372,2.667,0.148,2.976,1.137
	c0.217,0.692,0.062,6.09-2.583,13.675c-1.175,3.529-3.392,5.859-6.171,6.732c-2.966,0.937-6.194-0.996-7.809-6.155
	c-1.658-5.263-2.68-16.177-2.455-32.817C38.559,73.286,35.913,74.227,34.918,74.533z"/>
<path fill="#FFFFFF" d="M62.84,109.284c-2.08,0.656-3.227,0.144-3.854-1.843c-0.998-3.182-1.396-17.661,0.898-43.349
	c1.056-11.567,1.141-16.496,4.818-17.659c0.897-0.274,1.939,0.272,2.149,0.965c0.411,1.296-3.469,19.514-3.89,54.981
	c5.556-18.427,6.28-27.922,11.14-29.451c1.289-0.41,2.594,0.277,3.065,1.763c0.406,1.293,0.291,2.314,0.102,3.453
	c-1.36,10.24-1.878,16.621-1.038,19.296c0.287,0.898,0.746,1.299,1.243,1.146c1.581-0.501,2.961-4.098,4.719-10.65
	c0.464-1.662,0.64-2.81,1.342-3.028c0.292-0.09,2.192,0.727,2.46,1.625c0.201,0.593-0.225,5.525-2.846,11.037
	c-1.4,2.837-3.043,4.551-5.331,5.263c-2.881,0.902-5.021-0.376-6.047-3.654c-0.878-2.778-1.111-6.635-1.186-11.737
	C67.188,101.261,66.905,108.003,62.84,109.284z"/>
<path fill="#FFFFFF" d="M88.178,90.642c1.151,3.673,2.756,5.354,4.747,4.735c3.183-1.003,7.473-7.146,9.14-16.068
	c0.434-2.427,0.457-3.745,1.156-3.959c0.49-0.159,1.698,0.226,2.079,1.419c0.31,0.988,0.056,4.346-1.785,9.274
	c-2.655,7.166-5.62,11.258-10.688,12.849c-4.957,1.556-8.349-0.546-10.15-6.306c-1.752-5.553-1.856-15.989,0.698-24.529
	c0.771-2.417,2.083-4.142,3.77-4.671c0.982-0.312,1.91-0.164,2.989,0.151c4.253-0.027,4.882-0.77,5.902,2.503
	c2.753,8.729-0.938,18.18-5.406,19.583c-0.998,0.315-2.104,0.229-3.399-0.457C87.281,87.119,87.61,88.861,88.178,90.642z
	 M91.613,70.369c-0.239-0.785-1.049-1.294-1.653-1.108c-1.881,0.593-3.456,8.062-2.615,10.746c0.596,1.882,1.719,2.723,2.815,2.379
	C92.339,81.708,93.026,74.837,91.613,70.369z"/>
</svg>
